<svg xmlns="http://www.w3.org/2000/svg" viewBox="0 0 50.84 56"><defs><style>.cls-1{fill:#231f20;}</style></defs><g id="Layer_2" data-name="Layer 2"><g id="Layer_1-2" data-name="Layer 1"><path class="cls-1" d="M41.77,47.11V54H40.38v2H39.23V47.11Zm-32.7,0V54h1.39v2h1.15V47.11Zm3.51,0v5.74H38.26V47.11ZM47.05,4.24a3.93,3.93,0,0,0-3.42-2.89A128.81,128.81,0,0,0,25.42,0,98.64,98.64,0,0,0,7.21,1.35c-1.47.27-3.12,1.23-3.42,2.89C2.53,17.46-.48,30,.06,37.08a24.63,24.63,0,0,0,2.19,7.46c.34.9,1.16,1.74,1.71,1.74H46.88c.55,0,1.37-.84,1.71-1.74a24.44,24.44,0,0,0,2.18-7.46C51.31,30,48.31,17.46,47.05,4.24Zm-3.71-.13a1,1,0,1,1-1,1A1,1,0,0,1,43.34,4.11ZM7.5,4.11a1,1,0,1,1-1,1A1,1,0,0,1,7.5,4.11Zm-.5,40a1.9,1.9,0,1,1,1.9-1.9A1.9,1.9,0,0,1,7,44.06Zm5.41,0a1.9,1.9,0,1,1,1.9-1.9A1.9,1.9,0,0,1,12.41,44.06Zm6.25-19.63c0,.6-.36.91-.72.91l-13,0c-.42,0-.56-.73-.51-1.46.32-3.79,1-13.19,1.18-14.29s1.71-1.86,3-2.1a54.17,54.17,0,0,1,8.92-.66c.34,0,1.05.16,1.05.72Zm10.73-.12c0,.58-.33,1-.76,1l-3.21,0-3.21,0c-.43,0-.76-.44-.76-1V7.7c0-.66.37-.9.56-.9h6.82c.18,0,.56.24.56.9Zm9,19.75a1.9,1.9,0,1,1,1.9-1.9A1.9,1.9,0,0,1,38.43,44.06Zm5.4,0a1.9,1.9,0,1,1,1.91-1.9A1.9,1.9,0,0,1,43.83,44.06Zm2-18.74-13,0c-.37,0-.72-.31-.72-.91V7.53c0-.56.7-.72,1-.72a54.17,54.17,0,0,1,8.92.66c1.33.24,2.79.9,3,2.1s.87,10.5,1.18,14.29C46.42,24.59,46.28,25.32,45.86,25.32Z"/></g></g></svg>